<svg width="63" height="40" viewBox="0 0 63 40" fill="none" xmlns="http://www.w3.org/2000/svg">
<path d="M11.3239 39.2043C11.9921 39.3595 12.7345 39.4371 13.4769 39.4371C13.5512 39.4371 13.6254 39.4371 13.7739 39.4371H37.6796L38.0508 39.2819C40.5007 37.9627 42.1341 36.1003 42.8022 33.7722C43.6931 30.6682 42.5795 27.5641 41.9856 26.2449C42.2083 25.0032 42.2083 23.8392 41.9856 22.5976C41.3174 19.1055 38.6447 16.3119 35.2296 15.5359L15.4815 10.9574C13.5512 10.259 11.6952 10.1038 10.0619 10.647C8.79975 11.035 4.79072 13.1302 3.3059 17.3983C3.08318 18.0191 2.78621 18.5623 2.415 19.1055C1.00442 20.968 -1.51978 25.7793 1.22715 31.9098C4.04831 38.1955 11.3239 39.2043 11.3239 39.2043ZM37.2341 20.2696C33.2251 19.7263 26.8404 19.0279 26.8404 19.8039C26.8404 20.7352 35.4523 22.3648 38.7932 22.908C39.0159 23.9168 39.0159 24.9256 38.7932 26.0121L38.5705 26.7105L38.9417 27.3313C38.9417 27.3313 39.2386 27.9521 39.5356 28.8057C35.7493 27.9521 28.0282 26.9433 24.5389 26.5553C24.6874 25.9345 24.7616 25.2361 24.7616 24.5376C28.1025 24.6928 34.4872 25.0032 34.7099 24.5376C34.8584 24.072 27.954 22.8304 24.6874 22.2096C24.5389 21.356 24.3904 20.58 24.0934 19.7263C23.5737 18.3295 22.9056 17.0103 21.9404 15.7687L34.6357 18.7175C35.6008 19.0279 36.4917 19.5711 37.2341 20.2696ZM6.64675 33.229C6.64675 33.229 11.4724 27.0209 11.027 26.4777C10.5815 25.9345 4.41951 30.9786 4.41951 30.9786C2.78621 28.6505 2.63773 25.7793 3.45438 23.5288C3.67711 22.8304 4.34528 21.744 4.86497 20.8904C5.38465 20.0367 5.8301 19.2607 6.05282 18.7175C7.01796 16.0015 9.46792 14.4494 10.5815 13.9838C10.5815 13.9838 12.1406 22.132 12.586 22.2872C12.9573 22.3648 13.5512 13.8286 13.5512 13.8286C14.8133 14.139 16.1496 14.915 17.1148 15.6911C18.9708 17.1655 20.3071 18.9503 21.0495 20.968C21.792 23.0632 21.792 25.3913 20.9753 27.2537C20.9011 27.4865 20.8268 27.7969 20.7526 28.1073C20.7526 28.1073 15.4072 25.7793 15.036 26.3225C14.6648 26.8657 20.2329 31.289 20.2329 31.289C19.8617 32.5306 18.9708 33.9274 17.189 35.0138C13.4027 37.2643 8.28006 34.9362 6.64675 33.229ZM36.8629 36.1779H20.9011C23.4995 33.5394 23.648 30.4354 23.7965 28.9609C26.9888 29.2713 35.8978 30.0473 39.7583 29.9697C39.9068 30.7458 39.9068 31.5994 39.7583 32.3754C36.6402 32.1426 27.1373 31.3666 27.1373 32.2978C27.2116 33.1514 34.8584 34.2378 38.6447 34.7034C38.1993 35.2467 37.6053 35.7123 36.8629 36.1779Z" fill="#CAB29A"/>
<path d="M7.98309 24.6152C7.83461 25.0808 2.56348 23.4512 2.56348 23.4512L3.45438 21.356C3.38014 21.356 8.13157 24.1496 7.98309 24.6152Z" fill="#CAB29A"/>
<path d="M16.8178 21.9767C16.5208 21.6663 20.2329 18.5623 20.2329 18.5623L21.5692 20.8127C21.495 20.8127 17.189 22.3647 16.8178 21.9767Z" fill="#CAB29A"/>
<path d="M14.2194 32.2977C15.036 32.0649 16.1496 36.7986 16.1496 36.7986L13.6997 37.3418C13.6997 37.3418 13.4027 32.6081 14.2194 32.2977Z" fill="#CAB29A"/>
<path d="M38.719 11.8109C38.6447 12.4318 38.6447 13.1302 38.719 13.8286C38.719 13.9062 38.719 13.9838 38.719 14.0614L41.2432 35.8674L41.3917 36.1778C42.728 38.2731 44.4355 39.5923 46.5143 39.9027C49.2612 40.3683 51.7112 39.0491 52.7506 38.3507C53.7899 38.4283 54.8293 38.3507 55.7944 37.9627C58.6156 36.9538 60.6944 34.2378 60.9913 31.0561L62.7731 12.587C63.1443 10.8021 63.0701 9.01729 62.4761 7.54286C62.0307 6.45644 59.8035 2.96437 56.0914 2.11076C55.5717 1.95555 55.052 1.72275 54.5323 1.48994C52.8248 0.403523 48.5188 -1.38131 43.6931 1.80035C38.8674 5.05961 38.719 11.8109 38.719 11.8109ZM57.2793 33.4618C57.2793 29.7369 57.205 23.8392 56.5368 23.9168C55.7944 23.9944 55.349 31.9873 55.2005 35.169C54.3839 35.4794 53.493 35.6346 52.6021 35.4794L52.0081 35.4018L51.5627 35.7898C51.5627 35.7898 51.1172 36.1778 50.3748 36.4882C50.6718 32.9962 50.6718 25.7792 50.6718 22.52C51.2657 22.5976 51.7854 22.5976 52.3793 22.52C52.6021 25.624 53.0475 31.4441 53.4187 31.5993C53.7899 31.6769 54.1611 25.236 54.3096 22.2096C54.9778 21.9767 55.646 21.7439 56.3141 21.4335C57.4277 20.8127 58.4671 20.0367 59.358 19.0279L58.2444 30.9009C58.1702 31.8321 57.7989 32.6858 57.2793 33.4618ZM43.2477 6.92205C43.2477 6.92205 48.89 10.6469 49.3355 10.1813C49.7809 9.71571 44.881 4.59401 44.881 4.59401C46.6628 2.88677 49.0385 2.42116 50.9688 2.88677C51.5627 3.04197 52.5278 3.50758 53.3445 3.89559C54.0869 4.2836 54.7551 4.594 55.2747 4.74921C57.6505 5.37002 59.2095 7.46526 59.7292 8.39648C59.7292 8.39648 53.0475 10.7245 53.0475 11.1125C53.0475 11.5005 60.1747 11.1125 60.1747 11.1125C60.0262 12.3542 59.5807 13.5958 58.9868 14.527C57.9474 16.3894 56.6111 17.7863 54.9778 18.6399C53.2702 19.5711 51.34 19.8039 49.7067 19.2607C49.4839 19.1831 49.2612 19.1831 48.9642 19.1831C48.9642 19.1831 50.3748 14.0614 49.8551 13.8286C49.4097 13.5958 46.2173 19.1055 46.2173 19.1055C45.1037 18.8727 43.9159 18.2519 42.8022 16.6998C40.575 13.5182 41.9856 8.62929 43.2477 6.92205ZM43.9901 34.8586L42.2825 20.2695C44.7325 22.3648 47.4052 22.132 48.593 22.132C48.6673 25.0808 48.9643 33.3066 49.4097 36.7986C48.8158 37.0314 48.0734 37.109 47.4052 37.109C47.3309 34.2378 46.9597 25.4688 46.1431 25.624C45.4007 25.7792 45.3264 32.9186 45.3264 36.333C44.881 35.945 44.4355 35.4794 43.9901 34.8586Z" fill="#CAB29A"/>
<path d="M50.5975 7.23242C50.1521 7.15482 50.9687 2.11072 50.9687 2.11072L52.7505 2.65393C52.8248 2.73153 51.043 7.31002 50.5975 7.23242Z" fill="#CAB29A"/>
<path d="M53.7157 14.9926C54.0127 14.6822 56.9081 17.7086 56.9081 17.7086L55.2005 19.1054C55.2005 19.183 53.4187 15.3806 53.7157 14.9926Z" fill="#CAB29A"/>
<path d="M44.8067 13.751C45.1037 14.4494 41.3174 16.0014 41.3174 16.0014L40.6492 13.8286C40.575 13.8286 44.5098 13.0525 44.8067 13.751Z" fill="#CAB29A"/>
</svg>
