<svg width="30" height="40" viewBox="0 0 30 40" fill="none" xmlns="http://www.w3.org/2000/svg">
<path d="M28.808 22.2C27.7484 20.4 26.0927 18.9333 24.0397 17.8667C21.9868 16.8 19.6027 16.2667 17.1523 16.2667H16.4901V13.4H19.8676L28.0795 8.66667V0H19.1391V2.33333H25.0993V7.46667L18.808 11.1333H16.3576V7.33333H19.0729V5H10.7947V7.33333H13.5099V11.1333H11.0596L4.76822 7.46667V2.33333H10.7285V0H1.92054V8.66667L10.1325 13.4667H13.5099V16.3333H12.8477C10.3974 16.3333 8.01326 16.8667 5.96028 17.9333C3.9073 19 2.25167 20.4667 1.19206 22.2667L1.12584 22.3333L28.808 22.2Z" fill="#CAB29A"/>
<path d="M29.1391 33.6666H23.3113V31.3333H28.9404V24.6666H1.0596V31.3333H6.68874V33.6666H0.794702L0 35.6666V40H30V35.6666L29.1391 33.6666ZM20.1987 33.6666H9.80132V31.3333H20.1987V33.6666Z" fill="#CAB29A"/>
</svg>
