<svg width="22" height="22" viewBox="0 0 22 22" fill="none" xmlns="http://www.w3.org/2000/svg">
<path d="M3.22266 0.5H18.7773C20.278 0.5 21.5 1.72197 21.5 3.22266V18.7773C21.5 20.278 20.278 21.5 18.7773 21.5H3.22266C1.72197 21.5 0.5 20.278 0.5 18.7773V3.22266C0.5 1.72197 1.72197 0.5 3.22266 0.5ZM4.74219 10.957C4.74219 14.4318 7.56817 17.2578 11.043 17.2578C14.5178 17.2578 17.3438 14.4318 17.3438 10.957C17.3438 7.48223 14.5178 4.65625 11.043 4.65625C7.56817 4.65625 4.74219 7.48223 4.74219 10.957ZM15.0547 4.51172C15.0547 5.85402 16.146 6.94531 17.4883 6.94531C18.8306 6.94531 19.9219 5.85402 19.9219 4.51172C19.9219 3.16941 18.8306 2.07812 17.4883 2.07812C16.146 2.07812 15.0547 3.16941 15.0547 4.51172Z" fill="white" stroke="white"/>
<path d="M17.3438 4.51172C17.3438 4.43219 17.4088 4.36719 17.4883 4.36719C17.5678 4.36719 17.6328 4.43219 17.6328 4.51172C17.6328 4.59124 17.5678 4.65625 17.4883 4.65625C17.4088 4.65625 17.3438 4.59124 17.3438 4.51172Z" fill="white" stroke="white"/>
<path d="M7.03125 10.957C7.03125 8.74569 8.83162 6.94531 11.043 6.94531C13.2543 6.94531 15.0547 8.74569 15.0547 10.957C15.0547 13.1684 13.2543 14.9688 11.043 14.9688C8.83162 14.9688 7.03125 13.1684 7.03125 10.957Z" fill="white" stroke="white"/>
</svg>
