<svg width="156" height="65" viewBox="0 0 156 65" fill="none" xmlns="http://www.w3.org/2000/svg">
<g clip-path="url(#clip0)">
<path d="M85.209 32.6705C85.0723 45.6978 74.481 56.2697 61.3614 56.2697C48.2418 56.3379 37.5821 45.6296 37.5821 32.5341C37.5821 19.4386 48.2418 8.73033 61.4297 8.73033C72.0894 8.73033 81.1091 15.7555 84.184 25.3725L90.8804 18.6884C85.6189 7.63903 74.4126 0 61.4297 0C43.4586 0 28.8358 14.596 28.8358 32.5341C28.8358 50.4722 43.4586 65.0682 61.4297 65.0682C79.4008 65.0682 94.0237 50.4722 94.0237 32.5341C94.0237 29.9423 93.682 27.3505 93.1354 24.8951L85.209 32.6705Z" fill="#382F26"/>
<path d="M19.3377 65C8.88306 65 1.09331 56.5425 1.09331 46.0388V32.6705L9.83969 23.9402V46.0388C9.83969 51.6999 13.6662 56.2697 19.3377 56.2697C25.0092 56.2697 28.8357 51.6999 28.8357 46.0388V32.7387H37.5821V46.0388C37.5821 56.5425 29.7924 65 19.3377 65Z" fill="#382F26"/>
<path d="M5.46649 19.6431C8.48555 19.6431 10.933 17.2002 10.933 14.1867C10.933 11.1732 8.48555 8.73022 5.46649 8.73022C2.44743 8.73022 0 11.1732 0 14.1867C0 17.2002 2.44743 19.6431 5.46649 19.6431Z" fill="#382F26"/>
<path d="M104.205 65.0001C93.7503 65.0001 85.2089 56.4744 85.2089 46.0389V32.7388L93.9553 23.9403V46.0389C93.9553 51.7 98.5335 56.2698 104.205 56.2698C109.876 56.2698 114.455 51.7 114.455 46.0389V28.2372L123.201 19.6433V46.0389C123.201 56.5426 114.66 65.0001 104.205 65.0001Z" fill="#382F26"/>
<path d="M147.254 12.3452V27.4187C143.837 25.0315 139.737 23.5992 135.227 23.5992C123.748 23.5992 114.455 32.8751 114.455 44.3337C114.455 55.7922 123.748 65.0682 135.227 65.0682C146.707 65.0682 156 55.7922 156 44.3337V3.68311L147.254 12.3452ZM135.227 56.3379C128.599 56.3379 123.201 50.9496 123.201 44.3337C123.201 37.7177 128.599 32.3295 135.227 32.3295C141.855 32.3295 147.254 37.7177 147.254 44.3337C147.254 50.9496 141.855 56.3379 135.227 56.3379Z" fill="#382F26"/>
</g>
<defs>
<clipPath id="clip0">
<rect width="156" height="65" fill="white"/>
</clipPath>
</defs>
</svg>
