<svg width="22" height="22" viewBox="0 0 22 22" fill="none" xmlns="http://www.w3.org/2000/svg">
<g clip-path="url(#clip0)">
<path d="M19.8694 5.26295C20.1677 5.21107 20.4627 5.14493 20.7534 5.06478C20.3678 5.48663 19.9413 5.86875 19.4777 6.2079L19.2626 6.36523L19.2733 6.6315C19.28 6.79875 19.2832 6.96669 19.2832 7.13579C19.2832 13.2083 14.6675 19.4599 6.95935 19.4599C5.13188 19.4599 3.34218 19.056 1.70511 18.2816C3.52444 18.1818 5.24298 17.5682 6.71565 16.4892L7.79302 15.6999L6.46217 15.5877C5.03978 15.4677 3.79219 14.6136 3.16064 13.354C3.50083 13.3703 3.84014 13.351 4.1721 13.2975L4.24102 12.3264C2.74058 11.8598 1.63673 10.5547 1.41525 9.0049C1.78833 9.14748 2.17873 9.24413 2.57507 9.29174L4.32232 9.50161L2.94645 8.40439C1.97916 7.63301 1.4112 6.4644 1.4112 5.21355C1.4112 4.68215 1.51474 4.1577 1.71326 3.67107C4.0078 6.23552 7.23206 7.80597 10.6685 8.01812L11.3167 8.05814L11.1896 7.42123C11.1376 7.16055 11.1112 6.89096 11.1112 6.61777C11.1112 4.36962 12.9409 2.53986 15.1893 2.53986C16.295 2.53986 17.3644 2.99465 18.1289 3.78809L18.3196 3.98596L18.5889 3.93107C19.2288 3.80062 19.8496 3.60469 20.445 3.34581C20.1876 3.73807 19.8627 4.08521 19.4831 4.37077L19.8694 5.26295Z" fill="white" stroke="white"/>
</g>
<defs>
<clipPath id="clip0">
<rect width="22" height="22" fill="white"/>
</clipPath>
</defs>
</svg>
