<svg width="22" height="22" viewBox="0 0 22 22" fill="none" xmlns="http://www.w3.org/2000/svg">
<path d="M12.1262 21.499V21.5H8.56015V21.4925V21.4814V21.4703V21.459V21.4476V21.4362V21.4246V21.4129V21.4011V21.3892V21.3771V21.365V21.3528V21.3405V21.328V21.3155V21.3028V21.2901V21.2772V21.2642V21.2512V21.238V21.2247V21.2114V21.1979V21.1843V21.1706V21.1568V21.143V21.129V21.1149V21.1007V21.0864V21.072V21.0575V21.043V21.0283V21.0135V20.9986V20.9837V20.9686V20.9534V20.9382V20.9228V20.9073V20.8918V20.8761V20.8604V20.8445V20.8286V20.8126V20.7965V20.7803V20.7639V20.7475V20.7311V20.7145V20.6978V20.681V20.6642V20.6472V20.6302V20.613V20.5958V20.5785V20.5611V20.5436V20.526V20.5084V20.4906V20.4728V20.4548V20.4368V20.4187V20.4005V20.3823V20.3639V20.3454V20.3269V20.3083V20.2896V20.2708V20.2519V20.233V20.2139V20.1948V20.1756V20.1563V20.1369V20.1175V20.0979V20.0783V20.0586V20.0389V20.019V19.9991V19.979V19.959V19.9388V19.9185V19.8982V19.8778V19.8573V19.8367V19.8161V19.7954V19.7746V19.7537V19.7327V19.7117V19.6906V19.6694V19.6482V19.6269V19.6055V19.584V19.5625V19.5408V19.5192V19.4974V19.4756V19.4537V19.4317V19.4096V19.3875V19.3653V19.3431V19.3207V19.2983V19.2759V19.2533V19.2307V19.208V19.1853V19.1625V19.1396V19.1166V19.0936V19.0706V19.0474V19.0242V19.0009V18.9776V18.9542V18.9307V18.9072V18.8836V18.8599V18.8362V18.8124V18.7885V18.7646V18.7406V18.7166V18.6925V18.6683V18.6441V18.6198V18.5955V18.5711V18.5466V18.5221V18.4975V18.4729V18.4482V18.4234V18.3986V18.3737V18.3488V18.3238V18.2988V18.2737V18.2485V18.2233V18.1981V18.1727V18.1474V18.1219V18.0965V18.0709V18.0453V18.0197V17.994V17.9683V17.9425V17.9166V17.8907V17.8648V17.8388V17.8127V17.7866V17.7604V17.7342V17.708V17.6817V17.6553V17.6289V17.6025V17.576V17.5495V17.5229V17.4962V17.4696V17.4428V17.4161V17.3892V17.3624V17.3355V17.3085V17.2815V17.2545V17.2274V17.2003V17.1731V17.1459V17.1186V17.0913V17.064V17.0366V17.0092V16.9817V16.9542V16.9267V16.8991V16.8715V16.8438V16.8161V16.7884V16.7606V16.7328V16.7049V16.677V16.6491V16.6211V16.5931V16.5651V16.537V16.5089V16.4808V16.4526V16.4244V16.3962V16.3679V16.3396V16.3112V16.2828V16.2544V16.226V16.1975V16.169V16.1405V16.1119V16.0833V16.0547V16.026V15.9973V15.9686V15.9399V15.9111V15.8823V15.8534V15.8246V15.7957V15.7668V15.7378V15.7089V15.6799V15.6508V15.6218V15.5927V15.5636V15.5345V15.5053V15.4762V15.447V15.4178V15.3885V15.3593V15.33V15.3007V15.2713V15.242V15.2126V15.1832V15.1538V15.1244V15.0949V15.0654V15.0359V15.0064V14.9769V14.9473V14.9178V14.8882V14.8586V14.8289V14.7993V14.7697V14.74V14.7103V14.6806V14.6509V14.6211V14.5914V14.5616V14.5319V14.5021V14.4723V14.4424V14.4126V14.3828V14.3529V14.3231V14.2932V14.2633V14.2334V14.2035V14.1736V14.1436V14.1137V14.0837V14.0538V14.0238V13.9938V13.9639V13.9339V13.9039V13.8739V13.8438V13.8138V13.7838V13.7538V13.7237V13.6937V13.6636V13.6336V13.6035V13.5735V13.5434V13.5134V13.4833V13.4532V13.4231V13.3931V13.363V13.3329V13.3028V13.2727V13.2427V13.2126V13.1825V13.1524V13.1223V13.0922V13.0622V13.0321V13.002V12.9719V12.9419V12.9118V12.8817V12.8517V12.8216V12.7916V12.7615V12.7315V12.7014V12.6714V12.6414V12.6114V12.5813V12.5513V12.5213V12.4913V12.4614V12.4314V12.4014V12.3714V12.3415V12.3116V12.2816V12.2517V12.2218V12.1919V12.162V12.1321V12.1022V12.0724V12.0425V12.0127V11.9829V11.9531V11.9233V11.8935V11.8637V11.834V11.8042V11.7745V11.7448V11.7151V11.6854V11.6558V11.6261V11.5965V11.5669V11.5373V11.5077V11.4782V11.4486V11.4191V11.3896V11.3601V11.3307V11.3012V11.2718V11.2424V11.213V11.1836V11.1543V11.125V11.0957V11.0664V11.0372V11.0079V10.5079H8.06015H6.38802V7.62471H8.06099H8.56099V7.12471V4.61119C8.56099 3.77757 8.76134 2.74186 9.36026 1.92796C9.9399 1.14024 10.9357 0.500254 12.6695 0.5C12.6698 0.5 12.6702 0.5 12.6705 0.5L15.5551 0.512127V3.28451H15.5548H15.5494H15.5439H15.5384H15.5329H15.5273H15.5218H15.5162H15.5106H15.505H15.4993H15.4937H15.488H15.4823H15.4766H15.4709H15.4652H15.4594H15.4536H15.4478H15.442H15.4362H15.4303H15.4245H15.4186H15.4127H15.4068H15.4009H15.3949H15.389H15.383H15.377H15.371H15.365H15.359H15.3529H15.3469H15.3408H15.3347H15.3286H15.3225H15.3163H15.3102H15.304H15.2979H15.2917H15.2855H15.2793H15.2731H15.2668H15.2606H15.2543H15.2481H15.2418H15.2355H15.2292H15.2229H15.2165H15.2102H15.2039H15.1975H15.1911H15.1848H15.1784H15.172H15.1656H15.1592H15.1527H15.1463H15.1399H15.1334H15.127H15.1205H15.114H15.1075H15.101H15.0945H15.088H15.0815H15.075H15.0685H15.0619H15.0554H15.0488H15.0423H15.0357H15.0292H15.0226H15.016H15.0094H15.0028H14.9962H14.9896H14.983H14.9764H14.9698H14.9632H14.9566H14.9499H14.9433H14.9367H14.93H14.9234H14.9167H14.9101H14.9034H14.8968H14.8901H14.8835H14.8768H14.8701H14.8635H14.8568H14.8501H14.8435H14.8368H14.8301H14.8235H14.8168H14.8101H14.8034H14.7968H14.7901H14.7834H14.7767H14.7701H14.7634H14.7567H14.75H14.7434H14.7367H14.73H14.7234H14.7167H14.71H14.7034H14.6967H14.6901H14.6834H14.6768H14.6701H14.6635H14.6568H14.6502H14.6435H14.6369H14.6303H14.6237H14.617H14.6104H14.6038H14.5972H14.5906H14.584H14.5774H14.5708H14.5643H14.5577H14.5511H14.5446H14.538H14.5315H14.5249H14.5184H14.5118H14.5053H14.4988H14.4923H14.4858H14.4793H14.4728H14.4664H14.4599H14.4534H14.447H14.4405H14.4341H14.4277H14.4213H14.4149H14.4085H14.4021H14.3957H14.3893H14.383H14.3766H14.3703H14.364H14.3577H14.3514H14.3451H14.3388H14.3325H14.3263H14.32H14.3138H14.3076H14.3014H14.2952H14.289H14.2828H14.2766H14.2705H14.2644H14.2583H14.2522H14.2461H14.24H14.2339H14.2279H14.2218H14.2158H14.2098H14.2038H14.1979H14.1919H14.186H14.18H14.1741H14.1682H14.1624H14.1565H14.1507H14.1448H14.139H14.1332H14.1274H14.1217H14.1159H14.1102H14.1045H14.0988H14.0932H14.0875H14.0819H14.0763H14.0707H14.0651H14.0595H14.054H14.0485H14.043H14.0375H14.032H14.0266H14.0212H14.0158H14.0104H14.005H13.9997H13.9944H13.9891H13.9838H13.9786H13.9734H13.9681H13.963H13.9578H13.9527H13.9475H13.9425H13.9374H13.9323H13.9273H13.9223H13.9173H13.9124H13.9075H13.9025H13.8977H13.8928H13.888H13.8832H13.8784H13.8736H13.8689H13.8642H13.8595H13.8549H13.8502H13.8456H13.8411H13.8365H13.832H13.8275H13.823H13.8186H13.8142H13.8098H13.8054H13.8011H13.7968H13.7925H13.7883H13.784H13.7799H13.7757H13.7716H13.7675H13.7634H13.7593H13.7553H13.7514H13.7474H13.7435H13.7396H13.7357H13.7319H13.7281H13.7243H13.7206H13.7169H13.7132H13.7095H13.7059H13.7023H13.6988H13.6953H13.6918H13.6883H13.6849H13.6815H13.6782H13.6749H13.6716H13.6683H13.6651H13.6619H13.6588H13.6557H13.6526H13.6495H13.6465H13.6435H13.6406H13.6377H13.6348H13.632H13.6292H13.6264H13.6237H13.621H13.6183H13.6157H13.6131H13.6106H13.6081H13.6056H13.6032H13.6008H13.5984C13.3267 3.28451 12.9573 3.35068 12.6465 3.60459C12.3166 3.87412 12.1278 4.29323 12.1278 4.84296V7.12555V7.62567L12.628 7.62555L15.5577 7.62484L15.2601 10.5079H12.6262H12.1262V11.0079V11.0368V11.0657V11.0947V11.1236V11.1526V11.1816V11.2106V11.2397V11.2688V11.2979V11.327V11.3561V11.3853V11.4145V11.4437V11.4729V11.5022V11.5315V11.5608V11.5901V11.6194V11.6488V11.6781V11.7075V11.7369V11.7664V11.7958V11.8253V11.8547V11.8842V11.9138V11.9433V11.9728V12.0024V12.032V12.0615V12.0912V12.1208V12.1504V12.18V12.2097V12.2394V12.2691V12.2988V12.3285V12.3582V12.3879V12.4177V12.4474V12.4772V12.5069V12.5367V12.5665V12.5963V12.6261V12.6559V12.6858V12.7156V12.7454V12.7753V12.8051V12.835V12.8649V12.8947V12.9246V12.9545V12.9844V13.0143V13.0442V13.0741V13.104V13.1339V13.1638V13.1937V13.2236V13.2536V13.2835V13.3134V13.3433V13.3732V13.4032V13.4331V13.463V13.4929V13.5228V13.5528V13.5827V13.6126V13.6425V13.6724V13.7023V13.7322V13.7621V13.792V13.8219V13.8518V13.8817V13.9116V13.9414V13.9713V14.0012V14.031V14.0609V14.0907V14.1205V14.1504V14.1802V14.21V14.2398V14.2696V14.2993V14.3291V14.3589V14.3886V14.4184V14.4481V14.4778V14.5075V14.5372V14.5669V14.5966V14.6262V14.6559V14.6855V14.7151V14.7447V14.7743V14.8039V14.8334V14.863V14.8925V14.922V14.9515V14.981V15.0104V15.0399V15.0693V15.0987V15.1281V15.1575V15.1868V15.2162V15.2455V15.2748V15.304V15.3333V15.3625V15.3917V15.4209V15.4501V15.4792V15.5083V15.5374V15.5665V15.5956V15.6246V15.6536V15.6826V15.7115V15.7404V15.7693V15.7982V15.8271V15.8559V15.8847V15.9135V15.9422V15.9709V15.9996V16.0283V16.0569V16.0855V16.1141V16.1426V16.1711V16.1996V16.2281V16.2565V16.2849V16.3132V16.3415V16.3698V16.3981V16.4263V16.4545V16.4827V16.5108V16.5389V16.567V16.595V16.623V16.6509V16.6788V16.7067V16.7346V16.7624V16.7902V16.8179V16.8456V16.8732V16.9009V16.9284V16.956V16.9835V17.0109V17.0384V17.0658V17.0931V17.1204V17.1477V17.1749V17.2021V17.2292V17.2563V17.2833V17.3103V17.3373V17.3642V17.3911V17.4179V17.4447V17.4714V17.4981V17.5248V17.5514V17.5779V17.6045V17.6309V17.6573V17.6837V17.71V17.7363V17.7625V17.7887V17.8148V17.8409V17.8669V17.8929V17.9188V17.9447V17.9705V17.9963V18.022V18.0477V18.0733V18.0988V18.1243V18.1498V18.1752V18.2005V18.2258V18.2511V18.2763V18.3014V18.3264V18.3515V18.3764V18.4013V18.4262V18.451V18.4757V18.5004V18.525V18.5495V18.574V18.5985V18.6228V18.6471V18.6714V18.6956V18.7197V18.7438V18.7678V18.7918V18.8157V18.8395V18.8633V18.887V18.9106V18.9342V18.9577V18.9811V19.0045V19.0278V19.0511V19.0742V19.0974V19.1204V19.1434V19.1663V19.1892V19.2119V19.2347V19.2573V19.2799V19.3024V19.3248V19.3472V19.3695V19.3917V19.4139V19.436V19.458V19.4799V19.5018V19.5236V19.5453V19.567V19.5886V19.6101V19.6315V19.6529V19.6742V19.6954V19.7165V19.7376V19.7586V19.7795V19.8003V19.8211V19.8417V19.8623V19.8829V19.9033V19.9237V19.944V19.9642V19.9843V20.0044V20.0243V20.0442V20.064V20.0838V20.1034V20.123V20.1425V20.1619V20.1812V20.2004V20.2196V20.2387V20.2577V20.2766V20.2954V20.3141V20.3328V20.3513V20.3698V20.3882V20.4065V20.4247V20.4429V20.4609V20.4789V20.4968V20.5145V20.5322V20.5498V20.5674V20.5848V20.6021V20.6194V20.6365V20.6536V20.6706V20.6874V20.7042V20.7209V20.7375V20.754V20.7705V20.7868V20.803V20.8192V20.8352V20.8512V20.867V20.8828V20.8984V20.914V20.9295V20.9448V20.9601V20.9753V20.9904V21.0054V21.0203V21.035V21.0497V21.0643V21.0788V21.0932V21.1075V21.1217V21.1358V21.1498V21.1636V21.1774V21.1911V21.2047V21.2182V21.2315V21.2448V21.258V21.271V21.284V21.2969V21.3096V21.3222V21.3348V21.3472V21.3595V21.3718V21.3839V21.3959V21.4078V21.4196V21.4312V21.4428V21.4543V21.4656V21.4769V21.488V21.499Z" fill="white" stroke="white"/>
</svg>
